<?xml version="1.0" standalone="no"?>
<!DOCTYPE svg PUBLIC "-//W3C//DTD SVG 20010904//EN"
 "http://www.w3.org/TR/2001/REC-SVG-20010904/DTD/svg10.dtd">
<svg version="1.0" xmlns="http://www.w3.org/2000/svg"
 width="1000.000000pt" height="1000.000000pt" viewBox="0 0 1000.000000 1000.000000"
 preserveAspectRatio="xMidYMid meet">

<g transform="translate(0.000000,1000.000000) scale(0.100000,-0.100000)"
fill="#000000" stroke="none">
<path d="M2183 9852 c-135 -186 -353 -688 -448 -1030 -68 -246 -105 -486 -105
-676 0 -172 61 -465 145 -701 25 -71 55 -155 65 -185 26 -78 77 -196 147 -335
33 -66 75 -157 93 -202 l33 -82 -27 -158 c-44 -260 -47 -276 -62 -329 -27 -94
-118 -227 -290 -419 -101 -113 -141 -181 -169 -290 -19 -76 -19 -177 0 -254
15 -57 15 -62 -3 -98 -120 -236 -205 -689 -188 -1002 14 -274 70 -586 153
-860 31 -104 188 -489 241 -591 95 -184 172 -304 306 -480 320 -418 437 -602
481 -755 26 -87 16 -263 -19 -364 -55 -157 -106 -215 -251 -284 -89 -43 -119
-64 -159 -108 -69 -77 -83 -116 -90 -250 -7 -133 0 -154 59 -184 36 -18 64
-20 310 -24 149 -1 835 2 1525 8 690 6 1811 16 2490 21 2215 18 2131 16 2176
33 136 50 306 160 399 258 73 77 123 169 150 274 31 122 13 434 -31 542 -23
55 -116 191 -166 243 -24 25 -47 53 -51 62 -4 11 13 59 45 125 27 59 65 153
83 208 35 108 97 394 116 540 17 127 6 342 -25 485 -49 232 -161 562 -269 792
-114 245 -390 593 -743 938 -166 162 -245 227 -429 350 -83 55 -141 106 -235
203 -69 71 -170 166 -225 210 -55 45 -124 100 -153 124 -51 42 -119 88 -217
146 -49 29 -194 95 -445 203 -69 29 -184 69 -255 88 -72 19 -146 41 -166 50
-51 21 -221 63 -309 75 -274 38 -633 39 -875 2 -148 -23 -346 -70 -423 -100
-29 -12 -63 -21 -75 -21 -27 0 -67 26 -67 44 0 6 36 27 79 44 43 18 105 50
137 70 59 38 220 203 290 297 86 116 191 205 242 205 27 0 197 71 317 133 75
39 202 132 235 172 8 10 51 45 95 79 209 159 350 334 545 676 194 340 301 510
363 577 75 81 35 94 -198 65 -93 -12 -224 -24 -290 -27 -261 -13 -526 -58
-708 -121 -302 -105 -638 -282 -942 -498 -150 -106 -338 -260 -381 -313 -42
-51 -145 -105 -359 -188 -186 -72 -257 -88 -349 -80 -116 10 -120 12 -134 84
-6 34 -18 76 -27 94 -14 27 -17 64 -16 237 2 241 -6 307 -59 495 -36 128 -57
175 -244 545 -210 417 -258 531 -356 840 -97 309 -108 338 -139 384 -28 41
-36 46 -69 46 -33 -1 -41 -6 -79 -58z m551 -2731 c-158 -45 -309 -170 -390
-323 -34 -66 -63 -92 -48 -45 29 96 98 207 168 270 96 88 163 117 266 116 l65
0 -61 -18z m1646 -1442 c61 -96 86 -148 133 -289 63 -188 70 -325 27 -496 -22
-84 -78 -204 -113 -242 -39 -42 -177 -100 -177 -74 0 5 22 21 50 36 169 92
257 416 186 686 -24 89 -42 140 -130 352 -56 136 -50 142 24 27z m-1429 -484
c45 -40 112 -76 190 -100 52 -16 59 -16 129 -1 77 18 211 75 242 103 19 17 35
12 23 -6 -3 -6 -34 -30 -68 -53 -132 -88 -216 -161 -227 -198 -5 -19 -10 -95
-10 -168 l0 -132 44 -28 c162 -100 198 -123 194 -127 -2 -3 -64 20 -137 49
l-132 55 -52 -24 c-53 -25 -309 -97 -316 -89 -2 2 18 13 45 25 95 41 269 120
281 127 9 6 13 52 14 161 l1 154 -136 136 c-75 75 -136 140 -136 144 0 14 13
7 51 -28z m1818 -3566 c-29 -184 -88 -319 -184 -415 -75 -76 -155 -121 -357
-200 -200 -79 -254 -109 -436 -241 -81 -58 -168 -121 -193 -139 -25 -18 -80
-70 -123 -114 -55 -58 -72 -71 -60 -48 43 84 175 215 348 344 173 130 228 161
438 245 215 86 288 127 364 205 73 74 125 172 174 326 19 59 35 106 37 105 1
-2 -2 -32 -8 -68z"/>
</g>
</svg>
